<svg xmlns="http://www.w3.org/2000/svg" width="600" height="400" viewBox="0 0 600 400" fill="none">
  <rect width="600" height="400" fill="white"/>
  
  <!-- Background decoration -->
  <circle cx="300" cy="200" r="150" fill="#FFF8E1" opacity="0.6"/>
  <circle cx="100" cy="300" r="80" fill="#D4AF37" opacity="0.1"/>
  <circle cx="500" cy="100" r="60" fill="#8B4513" opacity="0.1"/>
  
  <!-- 404 text -->
  <path d="M156.8 139.2V217.6H190.4V139.2H224V114.4H190.4V80H156.8V114.4H132V139.2H156.8Z" fill="#D4AF37"/>
  <path d="M291.2 217.6C327.2 217.6 353.6 193.6 353.6 148.8C353.6 104 327.2 80 291.2 80C255.2 80 228.8 104 228.8 148.8C228.8 193.6 255.2 217.6 291.2 217.6ZM291.2 188C274.4 188 262.4 174.4 262.4 148.8C262.4 123.2 274.4 109.6 291.2 109.6C308 109.6 320 123.2 320 148.8C320 174.4 308 188 291.2 188Z" fill="#D4AF37"/>
  <path d="M426.8 139.2V217.6H460.4V139.2H494V114.4H460.4V80H426.8V114.4H402V139.2H426.8Z" fill="#D4AF37"/>
  
  <!-- Page not found text -->
  <text x="300" y="260" font-family="Arial, sans-serif" font-size="24" font-weight="bold" text-anchor="middle" fill="#5D4037">Page Not Found</text>
  
  <!-- Illustration elements -->
  <path d="M200 320C200 300 250 280 300 280C350 280 400 300 400 320" stroke="#5D4037" stroke-width="4" stroke-linecap="round"/>
  <circle cx="250" cy="300" r="10" fill="#8B4513"/>
  <circle cx="350" cy="300" r="10" fill="#8B4513"/>
</svg> 